<svg width="" height="" viewBox="0 0 223 218" fill="none" xmlns="http://www.w3.org/2000/svg">
<path d="M59.579 163.22L13.211 36.996L0.331 34.742V31.2H47.504V34.742L32.37 36.674L67.79 133.113L102.566 41.987L84.051 34.742V31.2H118.666V34.742L106.913 41.826L60.867 163.22H59.579Z" fill="white"/>
<path d="M91.44 156.619L106.252 154.204V36.996L91.44 34.742V31.2H153.103C164.91 31.2 175.375 33.8833 184.498 39.25C193.729 44.5093 200.92 52.0227 206.072 61.79C211.224 71.45 213.8 82.72 213.8 95.6C213.8 108.48 211.224 119.804 206.072 129.571C200.92 139.231 193.729 146.744 184.498 152.111C175.267 157.37 164.802 160 153.103 160H91.44V156.619ZM153.103 156.136C160.938 156.136 167.861 154.311 173.872 150.662C179.99 147.013 184.766 141.592 188.201 134.401C191.636 127.102 193.353 118.301 193.353 107.997V83.203C193.353 72.899 191.636 64.1513 188.201 56.96C184.766 49.7687 179.99 44.3483 173.872 40.699C167.861 37.0497 160.938 35.225 153.103 35.225H123.962V156.136H153.103Z" fill="white"/>
</svg>
